# xmcd CD database file
#
# Track frame offsets:
#	150
#	13828
#	26973
#	43679
#	56305
#	68414
#	78841
#	92707
#	108086
#	118991
#	129910
#	140432
#	151094
#	163718
#	178782
#	192671
#	204506
#	248371
#	262285
#	270630
#	285742
#	296365
#
# Disc length: 4143 seconds
#
# Revision: 0
# Processed by: cddbd v1.5.2PL0 Copyright (c) Steve Scherf et al.
# Submitted via: CDex 1.51
#
DISCID=38102d16
DTITLE=Diverse - Our ladies of Jazz 1
DYEAR=1900
DGENRE=Jazz
TTITLE0=Basin Street Blues (Ella Fitzgerald - Basin Street Blues (Ella Fitzgerald)
TTITLE1=Billie's Blues (Billy Holiday - Billie's Blues (Billy Holiday)
TTITLE2=My Melancholy Baby (Della Reese - My Melancholy Baby (Della Reese)
TTITLE3=My Ideal (Sarah Vaughan - My Ideal (Sarah Vaughan)
TTITLE4=Pacific Coast Blues (Dinah Washington - Pacific Coast Blues (Dinah Washington)
TTITLE5=The Lady Is A Tramp (Lena Horne - The Lady Is A Tramp (Lena Horne)
TTITLE6=Solid Gold Cadillac (Pearl Bailey - Solid Gold Cadillac (Pearl Bailey)
TTITLE7=Strange Fruit (Billie Holiday - Strange Fruit (Billie Holiday)
TTITLE8=Flying Home (Ella Fitzgerald - Flying Home (Ella Fitzgerald)
TTITLE9=That Certain Feeling (Pearl Bailey - That Certain Feeling (Pearl Bailey)
TTITLE10=Why Was I Born (Lena Horne - Why Was I Born (Lena Horne)
TTITLE11=I'll Get By (Dinah Washington - I'll Get By (Dinah Washington)
TTITLE12=East Of The Sun (Sarah Vaughan - East Of The Sun (Sarah Vaughan)
TTITLE13=Chewin' Gum (Ella FGitzgerald - Chewin' Gum (Ella Fitzgerald)
TTITLE14=Twenty - Twenty-Four Hours A Day (Billie Holiday)
TTITLE15=Hit The Road To Dreamland (Pearl Bailey - Hit The Road To Dreamland (Pearl Bailey)
TTITLE16=Lover Come Back To Me (Dinah Washington - Lover Come Back To Me (Dinah Washington)
TTITLE17=It Might As Well Be Spring (Sarah Vaughan - It Might As Well Be Spring (Sarah Vaughan)
TTITLE18=Pennies From Heaven (Della Reese - Pennies From Heaven (Della Reese)
TTITLE19=I Can't Give You Anything But Love (Lena Horne - I Can't Give You Anything But Love (Lena Horne)
TTITLE20=Diga Diga Do (Lena Horne - Diga Diga Do (Lena Horne)
TTITLE21=They Can't Take That Away From Me (Billie Holiday - They Can't Take That Away From Me (Billie Holiday}
EXTD=
EXTT0=
EXTT1=
EXTT2=
EXTT3=
EXTT4=
EXTT5=
EXTT6=
EXTT7=
EXTT8=
EXTT9=
EXTT10=
EXTT11=
EXTT12=
EXTT13=
EXTT14=
EXTT15=
EXTT16=
EXTT17=
EXTT18=
EXTT19=
EXTT20=
EXTT21=
PLAYORDER=
